HIERARCHY
ROOT Hips
{
  OFFSET 3.13124 94.3669 -3.18751
  CHANNELS  6 Xposition Yposition Zposition Zrotation Xrotation Yrotation
  JOINT LeftUpLeg
  {
    OFFSET 8.64259 1.95398 -2.38835
    CHANNELS 3 Zrotation Xrotation Yrotation
    JOINT LeftLeg
    {
      OFFSET 43.7702 0 0
      CHANNELS 3 Zrotation Xrotation Yrotation
      JOINT LeftFoot
      {
        OFFSET 40.6238 0 0
        CHANNELS 3 Zrotation Xrotation Yrotation
        JOINT LeftToeBase
        {
          OFFSET 12.7242 0 0
          CHANNELS 3 Zrotation Xrotation Yrotation
          End Site
          {
            OFFSET 0 0 0
          }
        }
      }
    }
  }
  JOINT RightUpLeg
  {
    OFFSET -8.2249 1.95398 -2.59336
    CHANNELS 3 Zrotation Xrotation Yrotation
    JOINT RightLeg
    {
      OFFSET 43.5653 0 0
      CHANNELS 3 Zrotation Xrotation Yrotation
      JOINT RightFoot
      {
        OFFSET 40.6238 0 0
        CHANNELS 3 Zrotation Xrotation Yrotation
        JOINT RightToeBase
        {
          OFFSET 12.7242 0 0
          CHANNELS 3 Zrotation Xrotation Yrotation
          End Site
          {
            OFFSET 0 0 0
          }
        }
      }
    }
  }
  JOINT Spine
  {
    OFFSET 0.165834 0.87714 6.61349
    CHANNELS 3 Zrotation Xrotation Yrotation
    JOINT Spine1
    {
      OFFSET 7.38962 1.71661e-005 0
      CHANNELS 3 Zrotation Xrotation Yrotation
      JOINT Spine2
      {
        OFFSET 11.9445 1.14441e-005 0
        CHANNELS 3 Zrotation Xrotation Yrotation
        JOINT Spine3
        {
          OFFSET 14.7254 4.19617e-005 0
          CHANNELS 3 Zrotation Xrotation Yrotation
          JOINT Spine4
          {
            OFFSET 10.9679 0 0
            CHANNELS 3 Zrotation Xrotation Yrotation
            JOINT RightShoulder
            {
              OFFSET 2.46616 -1.6653 3.69651
              CHANNELS 3 Zrotation Xrotation Yrotation
              JOINT RightArm
              {
                OFFSET 13.0012 0 0
                CHANNELS 3 Zrotation Xrotation Yrotation
                JOINT RightForeArm
                {
                  OFFSET 28.7848 1.52588e-005 0
                  CHANNELS 3 Zrotation Xrotation Yrotation
                  JOINT RightHand
                  {
                    OFFSET 26.5688 1.52588e-005 0
                    CHANNELS 3 Zrotation Xrotation Yrotation
                    End Site
                    {
                      OFFSET 0 0 0
                    }
                  }
                }
              }
            }
            JOINT LeftShoulder
            {
              OFFSET 2.38034 -1.29275 -3.75231
              CHANNELS 3 Zrotation Xrotation Yrotation
              JOINT LeftArm
              {
                OFFSET 16.3182 6.10352e-005 0
                CHANNELS 3 Zrotation Xrotation Yrotation
                JOINT LeftForeArm
                {
                  OFFSET 27.0901 0 0
                  CHANNELS 3 Zrotation Xrotation Yrotation
                  JOINT LeftHand
                  {
                    OFFSET 24.5451 1.52588e-005 0
                    CHANNELS 3 Zrotation Xrotation Yrotation
                    End Site
                    {
                      OFFSET 0 0 0
                    }
                  }
                }
              }
            }
            JOINT Neck
            {
              OFFSET 5.0226 -0.0266342 0
              CHANNELS 3 Zrotation Xrotation Yrotation
              JOINT Head
              {
                OFFSET 6.69363 2.86102e-005 0
                CHANNELS 3 Zrotation Xrotation Yrotation
                End Site
                {
                  OFFSET 0 0 0
                }
              }
            }
          }
        }
      }
    }
  }
}
MOTION
Frames:	16
Frame Time:	0.0333333
79.6566 105.58 23.4237 -88.4071 -48.549 -87.1464 -168.224 1.67664 95.0048 -20.9694 -33.3236 -6.88382 43.0571 2.59769 1.49921 28.7808 6.13379e-006 6.40108e-006 -179.532 10.9726 89.324 -5.43224 8.24124 0.462418 26.4416 9.59978 11.9763 28.7808 1.38446e-005 2.45879e-005 -5.2798 7.53905 -88.6592 11.7566 -10.2001 1.87047 0.124067 -10.1078 2.32202 -22.7349 -10.2855 -1.31516 -2.72224 -10.2856 -1.31517 111.933 -5.53827 -50.0389 -15.9752 66.3488 -13.4058 -11.0474 4.76733 -34.5834 -5.37983 -0.320009 -0.0162353 -95.6829 -12.994 51.9969 -6.62273 -25.3812 -65.4821 51.7044 31.8009 -66.2845 69.9833 -5.95107 -12.3628 -33.2833 -7.3868 -45.0255 3.1816 -14.0186 18.6581 
78.6612 105.004 24.4567 -86.4962 -40.4855 -89.2698 -167.964 2.72674 93.0378 -24.4941 -16.607 -1.2747 39.4706 -5.42789 -5.82775 28.7808 6.13379e-006 6.40108e-006 179.486 10.9262 86.0443 -3.80276 -1.27879 -0.0748095 30.629 14.0769 15.7352 28.7808 1.38446e-005 2.45879e-005 -5.66909 7.06156 -87.2842 12.4371 -10.4672 1.96826 0.806565 -10.3703 2.4318 -22.07 -10.5692 -1.30493 -2.05736 -10.5692 -1.30494 113.093 -6.6438 -47.3824 -14.1092 67.9111 -14.8228 -11.8617 5.03615 -34.3477 -5.37983 -0.320009 -0.0162353 -91.2502 -6.0581 57.1352 -1.94424 -24.7721 -68.0898 58.1214 34.8672 -70.1555 69.4034 -0.775107 -5.32372 -28.7875 -8.0406 -43.6319 -0.937063 -13.1096 21.7044 
77.7597 104.022 25.2144 -85.0574 -31.3412 -90.4547 -167.378 0.816662 93.2664 -23.5517 6.61007 7.38723 25.0092 -26.6929 -32.2583 28.7808 6.13379e-006 6.40108e-006 178.943 12.4809 84.7747 -3.78459 -10.6331 -0.585294 33.727 18.0985 18.821 28.7808 1.38446e-005 2.45879e-005 -5.73567 6.7323 -86.9706 13.0293 -10.277 1.80412 1.39753 -10.1875 2.25925 -21.4659 -10.3388 -1.40219 -1.45324 -10.3388 -1.40219 113.645 -7.31616 -46.302 -11.8694 69.8714 -15.3001 -12.835 5.33758 -34.8047 -5.37983 -0.320009 -0.0162353 -86.7925 1.80408 63.4569 0.136702 -25.236 -71.2041 65.0285 36.128 -73.6311 69.902 0.109233 -4.09389 -24.2835 -7.94322 -40.402 -3.20801 -11.3202 23.4604 
77.0742 103.376 25.7946 -83.8366 -21.8532 -92.329 -167.18 5.56447 91.879 -33.2478 25.1707 12.5603 11.9634 -22.1068 -35.4626 28.7808 6.13379e-006 6.40108e-006 179.09 13.9736 83.821 -3.7981 -17.7322 -0.949856 37.9323 20.0364 19.2191 28.7808 1.38446e-005 2.45879e-005 -5.74189 6.41675 -85.6566 13.3548 -9.97406 1.51613 1.72107 -9.89759 1.95787 -21.1216 -9.96383 -1.58255 -1.10895 -9.96386 -1.58257 114.331 -9.99519 -46.5347 -13.1322 68.3844 -12.4804 -11.397 5.30641 -37.2769 -5.37983 -0.320009 -0.0162353 -82.954 10.9858 69.2802 0.00107937 -26.4678 -72.9461 69.055 35.3204 -75.1111 72.1968 -1.22123 -5.85386 -20.0493 -6.68082 -38.1108 -4.47885 -8.69636 26.2876 
76.8394 101.99 26.5163 -82.1492 -13.8155 -92.3086 -166.396 2.99061 93.2305 -35.717 27.059 14.2968 39.1344 -11.9816 -12.3761 28.7808 6.13379e-006 6.40108e-006 179.481 15.6781 84.9987 -3.87972 -20.0516 -1.06988 43.6347 19.6648 17.0052 28.7808 1.38446e-005 2.45879e-005 -5.61792 6.44013 -86.1218 13.5057 -9.80562 1.13063 1.87126 -9.74625 1.5652 -20.9582 -9.68758 -1.89749 -0.945528 -9.6876 -1.89749 114.832 -14.0255 -48.1485 -15.3704 66.7446 -8.71619 -10.0835 5.20326 -39.5697 -5.37983 -0.320009 -0.0162353 -80.2981 18.7493 74.8685 -2.22505 -27.5264 -75.7099 72.1561 34.0504 -75.7635 74.3974 -2.80535 -7.79905 -14.471 -5.35766 -35.1616 -6.91477 -6.09321 27.7324 
78.5061 98.91 27.7337 -80.8675 -8.06722 -88.8506 -164.05 -9.85461 100.283 -15.7008 32.2131 18.344 56.6439 -14.2842 -9.45615 28.7808 6.13379e-006 6.40108e-006 179.72 18.3937 89.9197 -5.33111 -17.2338 -0.980142 50.2156 17.8647 13.6486 28.7808 1.38446e-005 2.45879e-005 -5.34618 6.82983 -90.8841 13.4133 -9.80235 0.927066 1.779 -9.75196 1.36172 -21.0483 -9.62336 -2.09028 -1.03566 -9.62337 -2.09029 115.31 -19.3916 -50.3337 -17.2987 65.3624 -5.45308 -8.81265 5.1507 -42.2669 -5.37983 -0.320009 -0.0162353 -78.9422 23.3493 79.7164 -5.28369 -28.1704 -79.5896 73.3686 33.2297 -75.6846 73.8017 -3.87969 -9.21008 -8.67778 -3.48436 -33.1507 -8.79451 -3.10157 29.7316 
78.4477 98.5546 28.1846 -79.417 -4.19897 -93.6989 -162.97 -2.98192 97.8419 -21.2276 11.9076 6.06176 49.5314 14.0839 9.7621 28.7808 6.13379e-006 6.40108e-006 179.704 18.7916 86.7408 -3.74268 -13.677 -0.736885 56.0372 14.7716 10.0829 28.7808 1.38446e-005 2.45879e-005 -5.78939 6.60365 -87.5424 13.2529 -9.85977 1.00515 1.61902 -9.80584 1.44232 -21.2125 -9.70151 -2.03369 -1.19983 -9.70151 -2.0337 115.036 -24.5087 -53.5898 -19.2424 63.6018 0.453058 -7.51418 5.21857 -45.7335 -5.37983 -0.320009 -0.0162353 -78.6311 24.421 81.5524 -7.14137 -29.0612 -82.8047 76.4119 33.841 -76.0344 70.2617 -6.27263 -12.7738 -1.88935 -1.60623 -31.0879 -11.5239 -0.309313 30.9789 
80.3197 97.8862 29.4832 -78.2773 -2.47653 -94.441 -163.202 -1.15362 98.9347 -20.8102 18.0076 9.15753 48.9416 17.9508 12.9674 28.7808 6.13379e-006 6.40108e-006 179.047 21.4293 86.1733 -3.78414 -11.765 -0.639881 55.4842 15.2339 10.5191 28.7808 1.38446e-005 2.45879e-005 -5.61034 7.04908 -88.4641 12.5786 -9.90206 0.997977 0.94502 -9.84845 1.43707 -21.8889 -9.73961 -2.05361 -1.87631 -9.73964 -2.05362 114.094 -29.8725 -57.7637 -20.6938 62.6441 9.57805 -6.49588 5.71514 -50.2605 -5.37983 -0.320009 -0.0162353 -78.7483 23.62 81.6059 -7.42039 -30.6379 -85.2735 78.5807 33.9567 -76.7296 74.2337 -4.70723 -10.2118 9.10864 -1.02538 -30.4002 -15.8306 1.73719 32.8587 
82.2638 97.1538 31.236 -78.2475 -1.90286 -93.559 -162.555 2.63519 101.084 -23.1703 15.9223 9.97636 50.0986 21.1115 15.2032 28.7808 6.13379e-006 6.40108e-006 178.886 22.9439 86.2485 -3.79961 -6.60938 -0.365824 54.3584 15.5205 10.9606 28.7808 1.38446e-005 2.45879e-005 -5.24053 7.89927 -89.2314 10.9517 -9.63407 0.377738 -0.68333 -9.60803 0.805383 -23.4946 -9.29814 -2.56112 -3.48191 -9.29811 -2.56111 112.695 -36.8853 -62.649 -22.8066 63.0994 20.2297 -5.94489 6.55742 -53.6238 -5.37983 -0.320009 -0.0162353 -79.1108 21.9689 80.3238 -7.516 -32.618 -87.3497 73.5703 31.9309 -74.8533 75.8259 -3.26519 -8.27086 26.642 -3.01186 -29.2533 -23.6406 1.65895 33.9626 
83.98 96.3617 33.1176 -77.8651 -2.60567 -92.1492 -162.471 8.02561 103.181 -25.4998 10.7266 9.6696 51.7314 22.5568 15.8999 28.7808 6.13379e-006 6.40108e-006 178.696 24.3792 86.22 -3.89436 -2.68607 -0.152839 53.9488 15.8792 11.2978 28.7808 1.38446e-005 2.45879e-005 -4.6858 8.70456 -90.2609 9.37863 -9.26013 -0.792718 -2.25903 -9.28595 -0.380812 -25.0307 -8.59064 -3.55934 -5.01803 -8.59063 -3.55935 109.053 -43.0057 -70.3042 -25.723 65.8816 29.5015 -6.02438 7.66741 -55.535 -5.37983 -0.320009 -0.0162353 -80.0015 17.3831 78.9969 -9.1268 -32.3415 -91.2096 68.7906 30.5855 -72.9427 75.2201 -7.69426 -13.8246 43.4991 -3.71613 -23.4719 -27.8724 1.26403 33.5884 
85.9261 95.5685 35.1508 -77.3466 -3.54892 -91.5975 -162.969 11.6808 104.414 -24.5331 8.10326 8.24204 53.3384 26.2664 18.2211 28.7808 6.13379e-006 6.40108e-006 178.214 27.0879 85.2774 -5.90479 -0.838408 -0.0575945 54.0322 16.2338 11.5418 28.7808 1.38446e-005 2.45879e-005 -4.14488 9.09408 -91.4504 8.66559 -8.85246 -1.71972 -2.97563 -8.91953 -1.32542 -25.7064 -7.9243 -4.31564 -5.69371 -7.9243 -4.31565 102.358 -49.69 -81.6819 -32.8304 68.5466 35.0509 -6.72411 8.46841 -55.3647 -5.37983 -0.320009 -0.0162353 -82.8495 9.36384 71.6246 -5.35 -29.7935 -87.3722 70.2976 31.9156 -74.1814 75.2379 -6.60058 -12.4601 49.3962 -1.89275 -17.3537 -25.4459 1.30756 33.826 
87.5707 95.0246 37.1569 -76.9772 -3.33842 -92.4487 -163.277 16.4984 104.06 -29.0708 2.69821 6.09364 58.5519 18.7648 11.7019 28.7808 6.13379e-006 6.40108e-006 178.29 31.2092 83.2121 -10.9568 -1.08933 -0.0691281 55.0627 17.099 11.8845 28.7808 1.38446e-005 2.45879e-005 -3.83591 10.1641 -91.0039 6.44772 -8.15885 -1.99498 -5.19845 -8.23867 -1.63166 -27.8902 -7.18076 -4.36533 -7.87752 -7.18077 -4.36533 95.3962 -59.6646 -91.3573 -5.7993 75.5721 0.447489 -6.88485 8.79322 -55.9289 -5.37983 -0.320009 -0.0162353 -79.9435 17.8248 78.74 -14.9501 -26.2585 -94.5864 66.8773 33.7901 -71.3901 75.0276 -4.91238 -10.3847 68.1244 -8.56237 -25.0048 -34.3331 -0.958897 42.1026 
89.0494 94.591 39.1356 -77.3051 -2.05597 -92.515 -162.143 19.7325 104.439 -35.6468 5.38134 5.05374 60.6683 20.4603 12.3145 28.7808 6.13379e-006 6.40108e-006 178.03 31.0939 82.532 -8.78832 -0.999652 -0.0539914 52.4942 17.9153 13.0955 28.7808 1.38446e-005 2.45879e-005 -3.77491 10.165 -90.9839 6.39466 -8.08585 -2.48193 -5.25267 -8.18716 -2.12151 -27.9287 -6.96534 -4.80606 -7.91601 -6.96533 -4.80605 83.3812 -59.2582 -107.915 9.8031 72.6429 -23.0407 -7.67231 8.17603 -53.8726 -5.37983 -0.320009 -0.0162353 -86.0991 1.63116 66.2751 -2.6462 -24.6178 -75.954 59.9374 36.8598 -69.9997 74.4893 -7.84404 -14.1468 59.299 -3.73152 -20.7308 -25.1982 2.16265 40.3871 
90.6306 94.1849 41.066 -77.9697 -0.859354 -93.067 -161.131 22.4236 104.403 -41.7176 6.41699 2.92445 62.5281 21.9254 12.761 28.7808 6.13379e-006 6.40108e-006 177.947 31.9811 81.2827 -8.99543 -1.74759 -0.0940463 50.5648 18.3053 13.879 28.7808 1.38446e-005 2.45879e-005 -3.63006 10.1748 -90.3109 6.34911 -7.53873 -1.98696 -5.30088 -7.61882 -1.65146 -27.9662 -6.59213 -4.16872 -7.95358 -6.59212 -4.16873 71.4262 -64.604 -121.601 20.3675 64.819 -43.8929 -7.59898 6.55271 -50.9854 -5.37983 -0.320009 -0.0162353 -93.1754 -8.542 54.2777 3.24663 -23.4335 -59.0501 69.9925 46.5502 -75.4642 67.0847 -10.5761 -19.4748 54.6176 -9.5593 -33.4013 -26.1475 1.04242 53.5958 
92.2344 93.7354 42.8725 -78.741 -0.554327 -93.6846 -161.099 24.52 103.898 -45.9459 4.63207 0.950238 64.529 21.373 11.9617 28.7808 6.13379e-006 6.40108e-006 177.853 32.9347 79.6776 -9.68538 -2.71037 -0.147824 49.0822 18.2954 14.2729 28.7808 1.38446e-005 2.45879e-005 -3.41903 10.3623 -90.0601 5.9353 -6.98122 -2.26178 -5.71826 -7.07394 -1.951 -28.3554 -5.97828 -4.26069 -8.34274 -5.9783 -4.26072 68.0209 -60.8614 -127.532 24.3148 55.2684 -52.5346 -6.85661 4.6235 -45.8216 -5.37983 -0.320009 -0.0162353 -99.1094 -17.352 48.0901 2.62995 -26.9613 -50.0923 79.9264 55.3617 -80.9832 58.5295 -13.2898 -26.4479 52.8547 -9.0955 -29.9479 -24.4729 -0.0362462 50.9997 
93.8594 93.3859 44.3293 -79.7099 -0.977983 -93.5741 -161.154 26.1066 104.003 -47.5751 0.509993 -1.80898 65.7919 23.1337 12.6903 28.7808 6.13379e-006 6.40108e-006 176.693 30.2221 79.2224 -3.6828 -2.23896 -0.105511 45.0202 18.7012 15.7719 28.7808 1.38446e-005 2.45879e-005 -3.08412 10.6546 -90.057 5.35241 -6.25857 -2.53885 -6.30537 -6.36418 -2.26006 -28.9107 -5.20627 -4.30526 -8.89803 -5.2063 -4.30528 68.9861 -55.8542 -128.687 32.2691 47.5761 -61.6325 -7.55194 4.734 -44.3539 -5.37983 -0.320009 -0.0162353 -101.264 -20.8241 46.4723 -1.60848 -30.9117 -43.1198 156.608 41.6134 -134.497 57.4158 3.45127 1.52835 54.9601 -11.7154 -29.8786 -25.8294 -2.74777 51.6935 
